{"title":"Empire of the Sun(1987)MP-4[DaScubaDude]","uid":12665666,"size":1522003017,"categoryP":"video","categoryS":"movies","magnet":"?xt=urn:btih:b176bcc25a47a54a01dda38b142a6e0017fb4a17&amp;dn=Empire+of+the+Sun%281987%29MP-4%5BDaScubaDude%5D&amp;tr=udp%3A%2F%2Ftracker.leechers-paradise.org%3A6969&amp;tr=udp%3A%2F%2Fzer0day.ch%3A1337&amp;tr=udp%3A%2F%2Fopen.demonii.com%3A1337&amp;tr=udp%3A%2F%2Ftracker.coppersurfer.tk%3A6969&amp;tr=udp%3A%2F%2Fexodus.desync.com%3A6969","seeders":0,"leechers":1,"uploader":"dascuba","files":1,"time":1446367849,"description":"Empire of the Sun (1987)\r\nPG  |  153 min  |  Drama, History, War  |  25 December 1987 (USA)\r\n7.8 Your rating:   -/10   Ratings: 7.8/10 from 84,210 users   Metascore: 60/100 \r\nReviews: 287 user | 56 critic | 17 from Metacritic.com\r\nA young English boy struggles to survive under Japanese occupation during World War II.\r\n\r\nDirector: Steven Spielberg\r\nWriters: J.G. Ballard (novel), Tom Stoppard (screenplay), 1 more credit »\r\nStars: Christian Bale, John Malkovich, Miranda Richardson\r\n\r\nGeneral\r\nComplete name                            : C:Empire of the SunEMPIRE_OF_THE_SUN_Title1_1.mp4\r\nFormat                                   : MPEG-4\r\nFormat profile                           : Base Media\r\nCodec ID                                 : isom\r\nFile size                                : 1.42 GiB\r\nDuration                                 : 2h 32mn\r\nOverall bit rate mode                    : Variable\r\nOverall bit rate                         : 1 329 Kbps\r\nMovie name                               : EMPIRE_OF_THE_SUN\r\nGenre                                    : Drama\r\nWriting application                      : Lavf54.6.100\r\n\r\nVideo\r\nID                                       : 1\r\nFormat                                   : AVC\r\nFormat/Info                              : Advanced Video Codec\r\nFormat profile                           :   \r\nFormat settings, CABAC                   : No\r\nFormat settings, ReFrames                : 6 frames\r\nCodec ID                                 : avc1\r\nCodec ID/Info                            : Advanced Video Coding\r\nDuration                                 : 2h 32mn\r\nBit rate                                 : 1 194 Kbps\r\nWidth                                    : 720 pixels\r\nHeight                                   : 404 pixels\r\nDisplay aspect ratio                     : 16:9\r\nFrame rate mode                          : Constant\r\nFrame rate                               : 29.970 fps\r\nColor space                              : YUV\r\nChroma subsampling                       : 4:2:0\r\nBit depth                                : 8 bits\r\nScan type                                : Progressive\r\nBits/(Pixel*Frame)                       : 0.137\r\nStream size                              : 1.27 GiB (90%)\r\n\r\nAudio\r\nID                                       : 2\r\nFormat                                   : AAC\r\nFormat/Info                              : Advanced Audio Codec\r\nFormat profile                           : LC\r\nCodec ID                                 : 40\r\nDuration                                 : 2h 32mn\r\nBit rate mode                            : Variable\r\nBit rate                                 : 128 Kbps\r\nMaximum bit rate                         : 130 Kbps\r\nChannel(s)                               : 2 channels\r\nChannel positions                        : Front: L R\r\nSampling rate                            : 44.1 KHz\r\nCompression mode                         : Lossy\r\nStream size                              : 140 MiB (10%)","torrent":{"xt":"urn:btih:b176bcc25a47a54a01dda38b142a6e0017fb4a17","amp;dn":"Empire+of+the+Sun%281987%29MP-4%5BDaScubaDude%5D","amp;tr":["udp%3A%2F%2Ftracker.leechers-paradise.org%3A6969","udp%3A%2F%2Fzer0day.ch%3A1337","udp%3A%2F%2Fopen.demonii.com%3A1337","udp%3A%2F%2Ftracker.coppersurfer.tk%3A6969","udp%3A%2F%2Fexodus.desync.com%3A6969"],"infoHash":"b176bcc25a47a54a01dda38b142a6e0017fb4a17","infoHashBuffer":{"type":"Buffer","data":[177,118,188,194,90,71,165,74,1,221,163,139,20,42,110,0,23,251,74,23]},"announce":[],"urlList":[]}}